# xmcd CD database file
#
# Track frame offsets:
#	150
#	11640
#	22008
#	32461
#	43251
#	54047
#	64495
#	74993
#	86628
#	99441
#
# Disc length: 1472 seconds
#
# Revision: 1
# Processed by: cddbd v1.4PL0 Copyright (c) Steve Scherf et al.
# Submitted via: CDex 1.50
#
DISCID=8705be0a
DTITLE=Patsy Cline - The Heart You Break May Be Your Own
DYEAR=1998
DGENRE=Country
TTITLE0=The Heart You Break May Be Your Own
TTITLE1=Turn The Cards Slowly
TTITLE2=Three Cigarettes In The Ashtray
TTITLE3=I Cried All The Way To The Altar
TTITLE4=Stop Look And Listen
TTITLE5=Pick Me Up On Your Way Down
TTITLE6=Honky Tonk Marry Go Round
TTITLE7=Cry Not For Me
TTITLE8=Yes I Understand
TTITLE9=Angel
EXTD=YEAR: 1998
EXTT0=
EXTT1=
EXTT2=
EXTT3=
EXTT4=
EXTT5=
EXTT6=
EXTT7=
EXTT8=
EXTT9=
PLAYORDER=
